 <svg width="672" height="282" viewBox="0 0 672 282" fill="none" xmlns="http://www.w3.org/2000/svg">
        <mask id="path-1-outside-1" maskUnits="userSpaceOnUse" x="0.882812" y="0.625" width="671" height="281" fill="black">
        <rect fill="white" x="0.882812" y="0.625" width="671" height="281"/>
        <path d="M19.3672 107H5.86719V4.625H19.3672V107Z"/>
        <path d="M112.742 15.7344H79.8359V107H66.4062V15.7344H33.5703V4.625H112.742V15.7344Z"/>
        <path d="M62.75 228.68H18.3828V264.961H69.9219V276H4.88281V173.625H69.2188V184.734H18.3828V217.641H62.75V228.68Z"/>
        <path d="M165.406 276H151.836L100.297 197.109V276H86.7266V173.625H100.297L151.977 252.867V173.625H165.406V276Z"/>
        <path d="M264.969 262.57C261.5 267.539 256.648 271.266 250.414 273.75C244.227 276.188 237.008 277.406 228.758 277.406C220.414 277.406 213.008 275.461 206.539 271.57C200.07 267.633 195.055 262.055 191.492 254.836C187.977 247.617 186.172 239.25 186.078 229.734V220.805C186.078 205.383 189.664 193.43 196.836 184.945C204.055 176.461 214.18 172.219 227.211 172.219C237.898 172.219 246.5 174.961 253.016 180.445C259.531 185.883 263.516 193.617 264.969 203.648H251.469C248.938 190.102 240.875 183.328 227.281 183.328C218.234 183.328 211.367 186.516 206.68 192.891C202.039 199.219 199.695 208.406 199.648 220.453V228.82C199.648 240.305 202.273 249.445 207.523 256.242C212.773 262.992 219.875 266.367 228.828 266.367C233.891 266.367 238.32 265.805 242.117 264.68C245.914 263.555 249.055 261.656 251.539 258.984V235.992H227.844V225.023H264.969V262.57Z"/>
        <path d="M302.023 276H288.523V173.625H302.023V276Z"/>
        <path d="M405.453 276H391.883L340.344 197.109V276H326.773V173.625H340.344L392.023 252.867V173.625H405.453V276Z"/>
        <path d="M487.297 228.68H442.93V264.961H494.469V276H429.43V173.625H493.766V184.734H442.93V217.641H487.297V228.68Z"/>
        <path d="M569.141 228.68H524.773V264.961H576.312V276H511.273V173.625H575.609V184.734H524.773V217.641H569.141V228.68Z"/>
        <path d="M630.664 234.586H606.617V276H593.047V173.625H626.938C638.469 173.625 647.328 176.25 653.516 181.5C659.75 186.75 662.867 194.391 662.867 204.422C662.867 210.797 661.133 216.352 657.664 221.086C654.242 225.82 649.461 229.359 643.32 231.703L667.367 275.156V276H652.883L630.664 234.586ZM606.617 223.547H627.359C634.062 223.547 639.383 221.812 643.32 218.344C647.305 214.875 649.297 210.234 649.297 204.422C649.297 198.094 647.398 193.242 643.602 189.867C639.852 186.492 634.414 184.781 627.289 184.734H606.617V223.547Z"/>
        </mask>
        <path d="M19.3672 107H5.86719V4.625H19.3672V107Z" stroke="white" stroke-width="8" mask="url(#path-1-outside-1)"/>
        <path d="M112.742 15.7344H79.8359V107H66.4062V15.7344H33.5703V4.625H112.742V15.7344Z" stroke="white" stroke-width="8" mask="url(#path-1-outside-1)"/>
        <path d="M62.75 228.68H18.3828V264.961H69.9219V276H4.88281V173.625H69.2188V184.734H18.3828V217.641H62.75V228.68Z" stroke="white" stroke-width="8" mask="url(#path-1-outside-1)"/>
        <path d="M165.406 276H151.836L100.297 197.109V276H86.7266V173.625H100.297L151.977 252.867V173.625H165.406V276Z" stroke="white" stroke-width="8" mask="url(#path-1-outside-1)"/>
        <path d="M264.969 262.57C261.5 267.539 256.648 271.266 250.414 273.75C244.227 276.188 237.008 277.406 228.758 277.406C220.414 277.406 213.008 275.461 206.539 271.57C200.07 267.633 195.055 262.055 191.492 254.836C187.977 247.617 186.172 239.25 186.078 229.734V220.805C186.078 205.383 189.664 193.43 196.836 184.945C204.055 176.461 214.18 172.219 227.211 172.219C237.898 172.219 246.5 174.961 253.016 180.445C259.531 185.883 263.516 193.617 264.969 203.648H251.469C248.938 190.102 240.875 183.328 227.281 183.328C218.234 183.328 211.367 186.516 206.68 192.891C202.039 199.219 199.695 208.406 199.648 220.453V228.82C199.648 240.305 202.273 249.445 207.523 256.242C212.773 262.992 219.875 266.367 228.828 266.367C233.891 266.367 238.32 265.805 242.117 264.68C245.914 263.555 249.055 261.656 251.539 258.984V235.992H227.844V225.023H264.969V262.57Z" stroke="white" stroke-width="8" mask="url(#path-1-outside-1)"/>
        <path d="M302.023 276H288.523V173.625H302.023V276Z" stroke="white" stroke-width="8" mask="url(#path-1-outside-1)"/>
        <path d="M405.453 276H391.883L340.344 197.109V276H326.773V173.625H340.344L392.023 252.867V173.625H405.453V276Z" stroke="white" stroke-width="8" mask="url(#path-1-outside-1)"/>
        <path d="M487.297 228.68H442.93V264.961H494.469V276H429.43V173.625H493.766V184.734H442.93V217.641H487.297V228.68Z" stroke="white" stroke-width="8" mask="url(#path-1-outside-1)"/>
        <path d="M569.141 228.68H524.773V264.961H576.312V276H511.273V173.625H575.609V184.734H524.773V217.641H569.141V228.68Z" stroke="white" stroke-width="8" mask="url(#path-1-outside-1)"/>
        <path d="M630.664 234.586H606.617V276H593.047V173.625H626.938C638.469 173.625 647.328 176.25 653.516 181.5C659.75 186.75 662.867 194.391 662.867 204.422C662.867 210.797 661.133 216.352 657.664 221.086C654.242 225.82 649.461 229.359 643.32 231.703L667.367 275.156V276H652.883L630.664 234.586ZM606.617 223.547H627.359C634.062 223.547 639.383 221.812 643.32 218.344C647.305 214.875 649.297 210.234 649.297 204.422C649.297 198.094 647.398 193.242 643.602 189.867C639.852 186.492 634.414 184.781 627.289 184.734H606.617V223.547Z" stroke="white" stroke-width="8" mask="url(#path-1-outside-1)"/>
        </svg>